<?xml version="1.0" standalone="no"?>
<!DOCTYPE svg PUBLIC "-//W3C//DTD SVG 20010904//EN"
 "http://www.w3.org/TR/2001/REC-SVG-20010904/DTD/svg10.dtd">
<svg version="1.0" xmlns="http://www.w3.org/2000/svg"
 width="1024.000000pt" height="1024.000000pt" viewBox="0 0 1024.000000 1024.000000"
 preserveAspectRatio="xMidYMid meet">
<metadata>
Created by potrace 1.14, written by Peter Selinger 2001-2017
</metadata>
<g transform="translate(0.000000,1024.000000) scale(0.100000,-0.100000)"
fill="#000000" stroke="none">
<path d="M4137 8164 c-1 -1 -38 -5 -82 -8 -407 -31 -769 -169 -1100 -419 -118
-90 -301 -263 -375 -357 -19 -24 -47 -58 -61 -75 -72 -85 -155 -217 -224 -355
-66 -132 -72 -147 -114 -275 -70 -217 -101 -407 -105 -658 -2 -113 -4 -129
-22 -142 -10 -8 -25 -15 -32 -15 -26 0 -238 -107 -332 -166 -153 -97 -207
-141 -350 -284 -198 -199 -348 -427 -447 -683 -36 -94 -87 -281 -98 -362 -4
-27 -9 -61 -12 -75 -9 -47 -11 -425 -3 -480 5 -30 11 -73 14 -95 44 -333 202
-678 431 -945 87 -100 221 -226 352 -330 43 -35 193 -125 272 -165 138 -69
347 -141 466 -161 11 -1 47 -7 80 -13 33 -6 94 -14 135 -18 98 -10 5269 -10
5380 0 265 24 530 116 760 264 111 72 172 124 300 252 275 276 430 585 484
966 18 128 14 448 -8 555 -8 41 -18 89 -21 105 -11 53 -44 156 -81 246 -127
319 -378 615 -694 821 -122 79 -354 175 -505 209 -49 11 -56 15 -52 33 3 12
16 66 30 121 14 55 29 129 33 165 11 97 9 296 -5 375 -7 39 -14 82 -16 96 -11
65 -70 222 -116 309 -151 284 -427 523 -719 623 -152 53 -270 71 -450 70 -235
-1 -471 -68 -667 -188 l-42 -26 -37 58 c-41 66 -127 184 -164 227 -94 109
-206 222 -280 282 -19 16 -44 37 -55 47 -47 43 -279 190 -388 245 -182 93
-442 178 -602 197 -27 4 -57 8 -65 10 -46 12 -404 28 -413 19z m266 -1856
l357 -268 0 -179 0 -179 305 -303 c168 -167 309 -304 313 -303 4 0 20 6 36 12
107 46 248 32 365 -35 56 -32 773 -751 795 -797 22 -46 21 -128 -3 -174 -26
-51 -367 -391 -411 -410 -49 -21 -121 -18 -172 7 -50 24 -749 720 -790 786
-65 105 -82 252 -42 362 l18 52 -304 306 -305 305 -180 0 -180 1 -274 366
-273 366 183 183 c100 100 187 180 193 176 6 -3 172 -127 369 -274z m1515 267
c71 -14 102 -37 102 -72 0 -26 -34 -64 -297 -330 l-151 -152 8 -43 c12 -62 18
-99 37 -229 l17 -117 46 -6 c43 -6 57 -8 125 -21 17 -2 72 -12 124 -20 l95
-16 49 48 c27 26 128 126 225 221 96 94 180 172 186 173 6 0 19 2 28 4 26 5
54 -35 67 -97 12 -58 16 -220 6 -268 -3 -14 -8 -41 -11 -60 -21 -126 -105
-283 -211 -396 -67 -72 -228 -179 -259 -172 -7 2 -46 35 -86 74 -113 109 -199
161 -315 188 -68 15 -176 18 -242 6 l-42 -8 -235 235 -235 234 2 67 c12 334
242 629 574 736 28 8 68 18 90 22 22 3 41 7 43 8 9 9 208 2 260 -9z m-1111
-1585 l160 -160 -9 -53 c-14 -72 -5 -173 23 -266 l13 -43 -361 -356 c-198
-197 -373 -367 -389 -380 -101 -81 -259 -97 -381 -40 -64 30 -139 107 -171
175 -44 97 -39 233 14 334 19 38 916 949 933 949 4 0 80 -72 168 -160z"/>
<path d="M3965 4144 c-16 -8 -41 -30 -54 -49 -33 -48 -26 -123 14 -165 28 -29
66 -47 95 -44 8 1 25 2 38 3 12 0 38 16 58 34 28 26 37 42 41 78 6 55 -16 109
-55 135 -34 23 -100 27 -137 8z"/>
</g>
</svg>
